# xmcd
#
# Track frame offsets:
#	150
#	23962
#	51677
#	62113
#	75454
#	94260
#	109673
#	121394
#	139865
#	154343
#	167694
#	181638
#	201912
#
# Disc length: 2896 seconds
#
# Revision: 1
# Processed by: cddbd v1.5.2PL0 Copyright (c) Steve Scherf et al.
# Submitted via: audiograbber 1.83.01
#
DISCID=b30b4e0d
DTITLE=Albie Donnelly's Supercharge - The Best Of
DYEAR=1900
DGENRE=
TTITLE0=When U Get Back
TTITLE1=Wysiwyg
TTITLE2=Fool That I Am
TTITLE3=Bad Time
TTITLE4=Only You
TTITLE5=Give It The Nasty
TTITLE6=I Need You Tonight
TTITLE7=Them Changes
TTITLE8=Naima
TTITLE9=Get Up And Dance
TTITLE10=Don't Let Go
TTITLE11=After The Show
TTITLE12=Play Some Fire
EXTD=
EXTT0=
EXTT1=
EXTT2=
EXTT3=
EXTT4=
EXTT5=
EXTT6=
EXTT7=
EXTT8=
EXTT9=
EXTT10=
EXTT11=
EXTT12=
PLAYORDER=
